<?xml version="1.0" encoding="UTF-8" standalone="no"?>
<!-- Created with Inkscape (http://www.inkscape.org/) -->

<svg
   xmlns:dc="http://purl.org/dc/elements/1.1/"
   xmlns:cc="http://creativecommons.org/ns#"
   xmlns:rdf="http://www.w3.org/1999/02/22-rdf-syntax-ns#"
   xmlns:svg="http://www.w3.org/2000/svg"
   xmlns="http://www.w3.org/2000/svg"
   version="1.1"
   width="300"
   height="235.20837"
   id="svg16078">
  <defs
     id="defs16080">
    <clipPath
       id="clipPath9535">
      <path
         d="m 205.069,475.77 60.831,0 0,47.692 -60.831,0 L 205.069,475.77 Z"
         id="path9537" />
    </clipPath>
  </defs>
  <metadata
     id="metadata16083">
    <rdf:RDF>
      <cc:Work
         rdf:about="">
        <dc:format>image/svg+xml</dc:format>
        <dc:type
           rdf:resource="http://purl.org/dc/dcmitype/StillImage" />
        <dc:title></dc:title>
      </cc:Work>
    </rdf:RDF>
  </metadata>
  <g
     transform="translate(-336.98206,-326.96088)"
     id="layer1">
    <g
       transform="matrix(4.9318825,0,0,-4.9318825,-674.39415,2908.611)"
       id="g9531">
      <g
         clip-path="url(#clipPath9535)"
         id="g9533">
        <g
           transform="translate(207.2923,477.6112)"
           id="g9539">
          <path
             d="M 0,0 C 0.238,0 0.364,0.04 0.485,0.147 0.6,0.257 0.677,0.429 0.677,0.586 0.677,0.742 0.606,0.899 0.5,0.999 0.383,1.111 0.268,1.141 -0.005,1.141 l -0.5,0 L -0.505,0 0,0 z m -0.505,-1.778 -0.489,0 0,3.368 1.171,0 c 0.57,0 0.99,-0.414 0.99,-0.984 0,-0.303 -0.082,-0.52 -0.264,-0.718 C 0.677,-0.359 0.429,-0.45 -0.021,-0.45 l -0.484,0 L -0.505,-1.778 Z"
             id="path9541"
             style="fill:#918f90;fill-opacity:1;fill-rule:nonzero;stroke:none" />
        </g>
        <g
           transform="translate(209.533,475.8338)"
           id="g9543">
          <path
             d="m 0,0 0,3.368 1.818,0 0,-0.45 -1.328,0 0,-0.995 1.328,0 0,-0.448 -1.328,0 0,-1.025 1.328,0 L 1.818,0 0,0 Z"
             id="path9545"
             style="fill:#918f90;fill-opacity:1;fill-rule:nonzero;stroke:none" />
        </g>
        <g
           transform="translate(212.844,477.5051)"
           id="g9547">
          <path
             d="M 0,0 C 0,-0.717 0.555,-1.288 1.262,-1.288 1.965,-1.288 2.52,-0.717 2.52,0 2.52,0.752 1.974,1.312 1.242,1.312 0.551,1.312 0,0.732 0,0 m 3.009,0.005 c 0,-0.959 -0.787,-1.742 -1.747,-1.742 -0.964,0 -1.752,0.783 -1.752,1.742 0,0.98 0.773,1.757 1.752,1.757 0.974,0 1.747,-0.772 1.747,-1.757"
             id="path9549"
             style="fill:#918f90;fill-opacity:1;fill-rule:nonzero;stroke:none" />
        </g>
        <g
           transform="translate(217.9826,477.6112)"
           id="g9551">
          <path
             d="M 0,0 C 0.238,0 0.364,0.04 0.485,0.147 0.6,0.257 0.677,0.429 0.677,0.586 0.677,0.742 0.606,0.899 0.5,0.999 0.383,1.111 0.268,1.141 -0.005,1.141 l -0.5,0 L -0.505,0 0,0 z m -0.505,-1.778 -0.489,0 0,3.368 1.171,0 c 0.57,0 0.99,-0.414 0.99,-0.984 0,-0.303 -0.082,-0.52 -0.263,-0.718 C 0.677,-0.359 0.429,-0.45 -0.021,-0.45 l -0.484,0 L -0.505,-1.778 Z"
             id="path9553"
             style="fill:#918f90;fill-opacity:1;fill-rule:nonzero;stroke:none" />
        </g>
        <g
           transform="translate(220.2231,475.8338)"
           id="g9555">
          <path
             d="m 0,0 0,3.368 0.49,0 0,-2.918 1.171,0 L 1.661,0 0,0 Z"
             id="path9557"
             style="fill:#918f90;fill-opacity:1;fill-rule:nonzero;stroke:none" />
        </g>
        <g
           transform="translate(222.9285,475.8338)"
           id="g9559">
          <path
             d="m 0,0 0,3.368 1.818,0 0,-0.45 -1.328,0 0,-0.995 1.328,0 0,-0.448 -1.328,0 0,-1.025 1.328,0 L 1.818,0 0,0 Z"
             id="path9561"
             style="fill:#918f90;fill-opacity:1;fill-rule:nonzero;stroke:none" />
        </g>
        <g
           transform="translate(227.1738,478.3282)"
           id="g9563">
          <path
             d="m 0,0 c -0.021,0.292 -0.203,0.49 -0.455,0.49 -0.247,0 -0.459,-0.212 -0.459,-0.465 0,-0.141 0.066,-0.272 0.182,-0.348 0.071,-0.051 0.151,-0.081 0.373,-0.142 0.375,-0.105 0.511,-0.177 0.657,-0.343 0.171,-0.182 0.257,-0.414 0.257,-0.676 0,-0.601 -0.45,-1.076 -1.024,-1.076 -0.621,0 -1.055,0.429 -1.066,1.061 l 0.485,0 c 0.04,-0.399 0.237,-0.611 0.57,-0.611 0.308,0 0.545,0.242 0.545,0.56 0,0.192 -0.09,0.343 -0.268,0.434 -0.075,0.04 -0.09,0.045 -0.231,0.091 -0.056,0.015 -0.026,0.005 -0.091,0.026 l -0.045,0.019 -0.046,0.016 c -0.369,0.121 -0.434,0.156 -0.56,0.292 -0.147,0.157 -0.227,0.38 -0.227,0.616 0,0.576 0.409,0.995 0.974,0.995 C 0.096,0.939 0.469,0.555 0.495,0 L 0,0 Z"
             id="path9565"
             style="fill:#918f90;fill-opacity:1;fill-rule:nonzero;stroke:none" />
        </g>
        <g
           transform="translate(231.9541,476.662)"
           id="g9567">
          <path
             d="m 0,0 c -0.318,-0.565 -0.884,-0.894 -1.529,-0.894 -0.94,0 -1.727,0.798 -1.727,1.742 0,0.984 0.761,1.757 1.727,1.757 0.67,0 1.216,-0.323 1.554,-0.924 l -0.595,0 c -0.268,0.324 -0.571,0.475 -0.954,0.475 -0.693,0 -1.244,-0.581 -1.244,-1.308 0,-0.692 0.577,-1.293 1.244,-1.293 0.357,0 0.67,0.153 0.918,0.445 L 0,0 Z"
             id="path9569"
             style="fill:#b04fae;fill-opacity:1;fill-rule:nonzero;stroke:none" />
        </g>
        <g
           transform="translate(234.9615,475.8338)"
           id="g9571">
          <path
             d="m 0,0 0,1.464 -1.389,0 0,-1.464 -0.49,0 0,3.368 0.49,0 0,-1.454 1.389,0 0,1.454 0.49,0 L 0.49,0 0,0 Z"
             id="path9573"
             style="fill:#b04fae;fill-opacity:1;fill-rule:nonzero;stroke:none" />
        </g>
        <g
           transform="translate(237.0706,477.5051)"
           id="g9575">
          <path
             d="M 0,0 C 0,-0.717 0.555,-1.288 1.262,-1.288 1.965,-1.288 2.52,-0.717 2.52,0 2.52,0.752 1.974,1.312 1.242,1.312 0.551,1.312 0,0.732 0,0 m 3.009,0.005 c 0,-0.959 -0.787,-1.742 -1.747,-1.742 -0.964,0 -1.752,0.783 -1.752,1.742 0,0.98 0.773,1.757 1.752,1.757 0.976,0 1.747,-0.772 1.747,-1.757"
             id="path9577"
             style="fill:#b04fae;fill-opacity:1;fill-rule:nonzero;stroke:none" />
        </g>
        <path
           d="m 241.215,479.201 0.49,0 0,-3.368 -0.49,0 L 241.215,479.201 Z"
           id="path9579"
           style="fill:#b04fae;fill-opacity:1;fill-rule:nonzero;stroke:none" />
        <g
           transform="translate(246.0912,476.662)"
           id="g9581">
          <path
             d="m 0,0 c -0.318,-0.565 -0.883,-0.894 -1.529,-0.894 -0.94,0 -1.727,0.798 -1.727,1.742 0,0.984 0.761,1.757 1.727,1.757 0.67,0 1.216,-0.323 1.554,-0.924 l -0.595,0 c -0.268,0.324 -0.571,0.475 -0.954,0.475 -0.693,0 -1.242,-0.581 -1.242,-1.308 0,-0.692 0.575,-1.293 1.242,-1.293 0.357,0 0.671,0.153 0.918,0.445 L 0,0 Z"
             id="path9583"
             style="fill:#b04fae;fill-opacity:1;fill-rule:nonzero;stroke:none" />
        </g>
        <g
           transform="translate(247.2006,475.8338)"
           id="g9585">
          <path
             d="m 0,0 0,3.368 1.818,0 0,-0.45 -1.328,0 0,-0.995 1.328,0 0,-0.448 -1.328,0 0,-1.025 1.328,0 L 1.818,0 0,0 Z"
             id="path9587"
             style="fill:#b04fae;fill-opacity:1;fill-rule:nonzero;stroke:none" />
        </g>
        <path
           d="m 250.158,476.389 0.469,0 0,-0.555 -0.469,0 L 250.158,476.389 Z"
           id="path9589"
           style="fill:#918f90;fill-opacity:1;fill-rule:nonzero;stroke:none" />
        <g
           transform="translate(254.9796,476.662)"
           id="g9591">
          <path
             d="m 0,0 c -0.318,-0.565 -0.884,-0.894 -1.531,-0.894 -0.938,0 -1.725,0.798 -1.725,1.742 0,0.984 0.761,1.757 1.725,1.757 0.672,0 1.218,-0.323 1.556,-0.924 l -0.596,0 c -0.267,0.324 -0.57,0.475 -0.953,0.475 -0.693,0 -1.244,-0.581 -1.244,-1.308 0,-0.692 0.577,-1.293 1.244,-1.293 0.357,0 0.67,0.153 0.918,0.445 L 0,0 Z"
             id="path9593"
             style="fill:#918f90;fill-opacity:1;fill-rule:nonzero;stroke:none" />
        </g>
        <g
           transform="translate(256.3514,477.5051)"
           id="g9595">
          <path
             d="M 0,0 C 0,-0.717 0.555,-1.288 1.262,-1.288 1.965,-1.288 2.52,-0.717 2.52,0 2.52,0.752 1.974,1.312 1.242,1.312 0.551,1.312 0,0.732 0,0 m 3.009,0.005 c 0,-0.959 -0.787,-1.742 -1.747,-1.742 -0.964,0 -1.752,0.783 -1.752,1.742 0,0.98 0.773,1.757 1.752,1.757 0.976,0 1.747,-0.772 1.747,-1.757"
             id="path9597"
             style="fill:#918f90;fill-opacity:1;fill-rule:nonzero;stroke:none" />
        </g>
        <g
           transform="translate(263.5753,475.8338)"
           id="g9599">
          <path
             d="M 0,0 0,2.843 -1.146,0 -1.444,0 -2.59,2.843 -2.59,0 l -0.49,0 0,3.368 0.772,0 1.015,-2.581 1.01,2.581 0.773,0 L 0.49,0 0,0 Z"
             id="path9601"
             style="fill:#918f90;fill-opacity:1;fill-rule:nonzero;stroke:none" />
        </g>
        <g
           transform="translate(208.5687,508.7233)"
           id="g9603">
          <path
             d="M 0,0 C 0.782,0.66 1.717,1.06 2.752,1.165 L 2.76,1.168 2.769,1.165 C 4.383,1.014 5.66,0.156 6.723,-1.423 l 1.539,0 C 7.099,0.548 5.417,1.543 3.254,1.545 3.051,1.545 2.855,1.533 2.66,1.516 l -0.007,-0.001 -0.008,0 C 2.479,1.528 2.324,1.545 2.162,1.545 0.625,1.545 -0.699,0.998 -1.763,-0.067 -2.906,-1.196 -3.5,-2.616 -3.5,-4.166 c 0.002,-3.342 2.358,-5.853 5.836,-5.853 0.167,0 0.324,0.014 0.487,0.025 l 0.005,0.002 0.009,-0.002 c 0.194,-0.016 0.39,-0.025 0.593,-0.025 2.07,0 3.488,0.84 4.778,2.838 l -1.563,0 C 5.671,-8.728 4.401,-9.543 2.734,-9.692 l -0.009,0 -0.007,0 C 1.558,-9.555 0.377,-8.99 -0.483,-8.09 -1.406,-7.118 -1.97,-5.699 -1.97,-4.183 -1.968,-2.628 -1.212,-1.033 0,0 m 16.712,-3.937 -5.224,0 0,5.259 -1.468,0 0,-11.122 1.003,0 0.465,0 0,5.565 5.224,0 0,-5.565 1.468,0 0,11.122 -1.468,0 L 16.712,-3.937 z m 9.882,-4.358 -4.515,4.825 0.479,0.625 2.653,-2.863 4.528,6.682 c -0.996,0.663 -2.191,1.048 -3.477,1.048 -3.476,0 -6.294,-2.819 -6.294,-6.297 0,-3.479 2.818,-6.298 6.294,-6.298 3.477,0 6.297,2.819 6.297,6.298 0,1.277 -0.381,2.464 -1.034,3.458 L 26.594,-8.295 z m 7.29,-1.505 1.004,0 0.499,0 0,11.122 -1.503,0 L 33.884,-9.8 z m 23.445,10.746 0,0.376 -6.791,0 0,-11.122 6.632,0 0,0.379 -5.164,0 0,4.948 5.164,0 0,0.375 -5.164,0 0,5.044 L 57.329,0.946 Z M 40.518,0 c 0.781,0.66 1.714,1.06 2.751,1.165 l 0.009,0.003 0.009,-0.003 c 1.611,-0.151 2.89,-1.009 3.952,-2.588 l 1.54,0 c -1.164,1.971 -2.846,2.966 -5.008,2.968 -0.202,0 -0.398,-0.012 -0.593,-0.029 l -0.009,-0.001 -0.007,0 c -0.165,0.013 -0.323,0.03 -0.482,0.03 -1.539,0 -2.862,-0.547 -3.928,-1.612 -1.142,-1.129 -1.736,-2.549 -1.736,-4.099 0.004,-3.342 2.356,-5.853 5.837,-5.853 0.166,0 0.321,0.014 0.487,0.025 l 0.007,0.002 0.006,-0.002 c 0.195,-0.016 0.392,-0.025 0.592,-0.025 2.072,0 3.489,0.84 4.78,2.838 l -1.562,0 c -0.975,-1.547 -2.245,-2.362 -3.911,-2.511 l -0.01,0 -0.007,0 c -1.157,0.137 -2.342,0.702 -3.2,1.602 -0.923,0.972 -1.486,2.391 -1.486,3.907 0,1.555 0.759,3.15 1.969,4.183"
             id="path9605"
             style="fill:#4f3560;fill-opacity:1;fill-rule:nonzero;stroke:none" />
        </g>
        <g
           transform="translate(209.1514,518.0934)"
           id="g9607">
          <path
             d="m 0,0 c -0.656,-0.392 -1.323,-0.387 -2.071,-0.387 l -0.757,0 0,5.301 0.638,0 c 1.018,0 1.782,-0.036 2.374,-0.447 C 0.843,4.009 1.227,3.198 1.227,2.279 1.23,1.299 0.794,0.466 0,0 M 1.125,4.798 C 0.604,5.098 -0.079,5.161 -1.06,5.16 l -3.023,0 0,-10.193 0.514,0 0,-0.027 0.225,0 0,0.027 0.516,0 0,4.416 1.752,0 C 1.368,-0.603 2.501,0.554 2.515,2.309 2.514,3.353 1.993,4.291 1.125,4.798 m 2.896,-9.831 6.041,0 0,0.246 -4.784,0 0,4.685 4.784,0 0,0.244 -4.784,0 0,4.772 4.931,0 0,0.246 -6.188,0 L 4.021,-5.033 z m 13.21,-0.005 -0.014,-0.002 -0.014,0.002 c -1.101,0.121 -2.198,0.645 -3.015,1.499 -0.88,0.926 -1.391,2.238 -1.391,3.669 0,1.305 0.543,2.645 1.495,3.627 0.787,0.799 1.804,1.292 2.899,1.409 l 0.014,0.003 0.012,-0.003 c 1.365,-0.133 2.514,-0.809 3.408,-1.98 0.677,-0.907 1.041,-1.937 1.041,-3.026 0.002,-2.756 -1.863,-4.931 -4.435,-5.198 m 0.485,10.406 -1.013,0 C 15.294,5.365 14.098,4.868 13.106,3.891 12.071,2.868 11.513,1.551 11.513,0.13 c 10e-4,-3.053 2.249,-5.367 5.176,-5.367 0.169,0 0.334,0.008 0.502,0.021 l 0.011,0.002 0.009,-0.002 c 0.163,-0.013 0.325,-0.021 0.489,-0.021 1.543,0 2.853,0.585 3.888,1.72 0.905,0.992 1.35,2.188 1.35,3.647 0,1.454 -0.529,2.725 -1.564,3.746 -1.008,0.992 -2.22,1.489 -3.658,1.492 M 28.633,0 C 27.976,-0.392 27.309,-0.387 26.56,-0.387 l -0.756,0 0,5.301 0.641,0 c 1.017,0 1.778,-0.036 2.371,-0.447 C 29.478,4.009 29.86,3.198 29.86,2.279 29.863,1.299 29.427,0.466 28.633,0 m 1.123,4.798 c -0.519,0.3 -1.201,0.363 -2.183,0.362 l -3.024,0 0,-10.193 0.245,0 0,0.021 0.765,0 0,-0.021 0.245,0 0,4.418 1.755,0 c 2.444,0.012 3.576,1.169 3.588,2.924 -10e-4,1.044 -0.52,1.982 -1.391,2.489 M 54.831,0.153 c -0.928,0.378 -1.799,0.553 -2.438,0.983 -0.605,0.396 -0.862,0.911 -0.855,1.657 -0.006,1.228 0.757,2.145 1.884,2.362 l 0.024,0.006 0.029,-0.006 c 0.946,-0.19 1.532,-0.96 1.679,-2.167 l 1.273,0 c -0.154,1.55 -1.044,2.369 -2.485,2.38 -0.158,0 -0.31,-0.019 -0.464,-0.042 L 53.457,5.322 53.438,5.326 C 53.275,5.353 53.108,5.368 52.929,5.368 51.304,5.362 50.272,4.257 50.267,2.81 c 0.009,-1.236 0.636,-1.853 2.058,-2.361 0.95,-0.333 1.71,-0.588 2.25,-0.995 0.547,-0.404 0.849,-0.982 0.843,-1.854 0.007,-1.39 -0.796,-2.427 -2.111,-2.635 L 53.284,-5.04 53.26,-5.035 c -1.171,0.203 -1.971,1.158 -2.027,2.543 l -1.237,0 c 0.115,-1.717 1.142,-2.735 2.888,-2.747 0.156,0 0.302,0.021 0.461,0.041 l 0.017,0.005 0.018,-0.005 c 0.172,-0.023 0.336,-0.041 0.515,-0.041 1.713,0.007 2.787,1.192 2.794,2.854 -0.01,1.278 -0.565,2.009 -1.858,2.538 m -7.768,2.94 1.236,0 0.794,2.067 -1.235,0 L 47.063,3.093 z m -13.152,2.067 -0.245,0 0,-0.009 -0.764,0 0,0.009 -0.247,0 0,-10.193 5.361,0 0,0.246 -4.105,0 L 33.911,5.16 z m 5.557,-10.193 6.038,0 0,0.246 -4.783,0 0,4.685 4.783,0 0,0.244 -4.783,0 0,4.772 4.931,0 0,0.246 -6.186,0 L 39.468,-5.033 Z"
             id="path9609"
             style="fill:#4f3560;fill-opacity:1;fill-rule:nonzero;stroke:none" />
        </g>
        <g
           transform="translate(207.9497,490.2036)"
           id="g9611">
          <path
             d="M 0,0 1.752,4.205 3.458,-0.015 0,0 z m 2.384,5.158 -1.269,0.003 -3.45,-8.309 1.031,-0.003 1.228,2.974 L 3.546,-0.192 4.749,-3.177 5.781,-3.18 2.384,5.158 Z"
             id="path9613"
             style="fill:#4f3560;fill-opacity:1;fill-rule:nonzero;stroke:none" />
        </g>
        <g
           transform="translate(263.1467,491.1902)"
           id="g9615">
          <path
             d="m 0,0 c -0.758,0.313 -1.467,0.457 -1.989,0.811 -0.494,0.325 -0.702,0.746 -0.691,1.357 0,1.003 0.624,1.75 1.542,1.924 l 0.025,0.002 0.02,-0.002 C -0.318,3.931 0.158,3.3 0.273,2.315 L 1.313,2.311 C 1.193,3.576 0.464,4.249 -0.712,4.262 -0.842,4.262 -0.963,4.249 -1.09,4.23 L -1.107,4.226 -1.124,4.23 c -0.13,0.022 -0.268,0.034 -0.411,0.034 -1.33,0 -2.175,-0.897 -2.181,-2.081 0,-1.008 0.512,-1.515 1.669,-1.931 0.777,-0.276 1.396,-0.489 1.836,-0.82 0.443,-0.333 0.689,-0.806 0.682,-1.519 0.002,-1.133 -0.661,-1.978 -1.733,-2.146 l -0.019,-0.003 -0.018,0.006 c -0.956,0.17 -1.607,0.951 -1.648,2.082 l -1.01,0.005 c 0.088,-1.403 0.924,-2.239 2.35,-2.254 0.126,0 0.249,0.017 0.374,0.033 l 0.015,0.004 0.016,-0.004 c 0.138,-0.018 0.275,-0.035 0.421,-0.035 1.398,0 2.278,0.964 2.287,2.323 C 1.506,-1.033 1.055,-0.435 0,0"
             id="path9617"
             style="fill:#4f3560;fill-opacity:1;fill-rule:nonzero;stroke:none" />
        </g>
        <g
           transform="translate(254.1877,488.1815)"
           id="g9619">
          <path
             d="M 0,0 C -0.643,-0.703 -1.563,-1.096 -2.657,-1.094 L -4.29,-1.087 -4.259,6.886 -2.81,6.881 C -1.584,6.878 -0.62,6.468 0.029,5.767 0.682,5.064 1.014,4.08 1.01,2.932 1.007,1.715 0.643,0.705 0,0 m 0.61,6.226 c -0.708,0.597 -1.55,0.821 -2.726,0.827 l -3.169,0.014 -0.031,-8.323 2.818,-0.013 c 1.085,-0.003 1.953,-0.003 2.815,0.583 C 1.389,0.042 2.041,1.338 2.05,2.895 2.051,4.233 1.505,5.468 0.61,6.226"
             id="path9621"
             style="fill:#4f3560;fill-opacity:1;fill-rule:nonzero;stroke:none" />
        </g>
        <g
           transform="translate(243.9323,494.783)"
           id="g9623">
          <path
             d="m 0,0 c -0.57,0.404 -1.201,0.478 -2,0.481 l -3.009,0.014 -0.031,-8.327 1.023,-0.002 0.033,8.123 1.277,-0.004 c 0.89,-0.004 1.575,-0.24 2.042,-0.671 0.462,-0.428 0.695,-1.044 0.69,-1.772 -0.004,-0.659 -0.236,-1.238 -0.648,-1.649 -0.416,-0.405 -1.009,-0.64 -1.718,-0.638 l -0.157,0.001 -0.612,0 2.399,-3.404 1.047,-0.003 -2.282,3.243 0.43,-0.003 C 0.08,-4.608 1.037,-3.632 1.051,-2.172 1.053,-1.255 0.649,-0.461 0,0"
             id="path9625"
             style="fill:#4f3560;fill-opacity:1;fill-rule:nonzero;stroke:none" />
        </g>
        <g
           transform="translate(230.0135,490.135)"
           id="g9627">
          <path
             d="M 0,0 1.75,4.205 3.455,-0.016 0,0 z m 1.117,5.163 -3.452,-8.31 1.028,-0.006 1.229,2.977 L 3.546,-0.192 4.749,-3.18 5.779,-3.181 2.378,5.157 1.117,5.163 Z"
             id="path9629"
             style="fill:#4f3560;fill-opacity:1;fill-rule:nonzero;stroke:none" />
        </g>
        <g
           transform="translate(224.9899,495.2981)"
           id="g9631">
          <path
             d="M 0,0 -1.926,-6.692 -3.724,0 -4.83,0 -6.634,-6.69 -8.55,0 l -0.851,0 2.395,-8.353 0.94,0 1.793,6.651 1.792,-6.651 0.927,-0.002 L 0.831,0 0,0 Z"
             id="path9633"
             style="fill:#4f3560;fill-opacity:1;fill-rule:nonzero;stroke:none" />
        </g>
        <path
           d="m 264.408,483.068 -58.649,0 0,0.363 58.649,0 L 264.408,483.068 Z"
           id="path9635"
           style="fill:#8f9295;fill-opacity:1;fill-rule:nonzero;stroke:none" />
      </g>
    </g>
  </g>
</svg>
